<?xml version="1.0" encoding="utf-8"?>
<!-- Generator: Adobe Illustrator 24.0.2, SVG Export Plug-In . SVG Version: 6.00 Build 0)  -->
<svg version="1.0" id="Layer_1" xmlns="http://www.w3.org/2000/svg" xmlns:xlink="http://www.w3.org/1999/xlink" x="0px" y="0px"
	 viewBox="0 0 300 280" enable-background="new 0 0 300 280" xml:space="preserve">
<g>
	<path fill="#FFFFFF" d="M227.44,209.15c0,3.9-3.16,7.07-7.07,7.07H79.63c-3.9,0-7.07-3.16-7.07-7.07V70.85
		c0-3.9,3.16-7.07,7.07-7.07h140.75c3.9,0,7.07,3.16,7.07,7.07V209.15z"/>
	<g>
		<linearGradient id="SVGID_1_" gradientUnits="userSpaceOnUse" x1="150" y1="64.5702" x2="150" y2="216.9941">
			<stop  offset="0" style="stop-color:#4D69A2"/>
			<stop  offset="1" style="stop-color:#3C5A99"/>
		</linearGradient>
		<path fill="url(#SVGID_1_)" d="M227.44,209.15V70.85c0-3.9-3.16-7.07-7.07-7.07h-12.6H92.23H79.63c-3.89,0-7.04,3.15-7.06,7.03
			v125.72l0,12.62c0.01,3.89,3.17,7.05,7.07,7.05h78.16v-61.19h-20.18v-21.08h20.18v-22.9c0-13.72,12.44-22.94,22.48-22.94h22.59
			v19.18h-10.42c-5.13,0-11.98,4.17-11.98,9.29v17.36h20.35v21.08h-20.35v61.19h27.31h12.6
			C224.28,216.21,227.44,213.05,227.44,209.15z"/>
		<path fill="#3D568E" d="M220.37,217.09h-40.8v-62.96h20.35v-19.32h-20.35v-18.24c0-5.48,7.07-10.18,12.86-10.18h9.53V88.98h-21.7
			c-9.02,0-21.6,8.39-21.6,22.06v23.78H138.5v19.32h20.18v62.96H79.63c-4.38,0-7.94-3.56-7.95-7.93l0-138.34
			c0.02-4.37,3.58-7.92,7.95-7.92h140.75c4.38,0,7.95,3.57,7.95,7.95v138.29C228.32,213.53,224.75,217.09,220.37,217.09z
			 M181.34,215.33h39.03c3.41,0,6.18-2.77,6.18-6.18V70.85c0-3.41-2.77-6.18-6.18-6.18H79.63c-3.39,0-6.16,2.76-6.18,6.15l0,138.34
			c0,3.4,2.78,6.17,6.18,6.17h77.28V155.9h-20.17v-22.85h20.17v-22.01c0-13.63,12.34-23.82,23.36-23.82h23.47v20.95h-11.3
			c-4.89,0-11.1,3.96-11.1,8.41v16.48h20.34v22.85h-20.34V215.33z"/>
	</g>
</g>
</svg>
