<?xml version="1.0" encoding="utf-8"?>
<!-- Generator: Adobe Illustrator 23.0.1, SVG Export Plug-In . SVG Version: 6.00 Build 0)  -->
<svg version="1.1" id="Layer_1" xmlns="http://www.w3.org/2000/svg" xmlns:xlink="http://www.w3.org/1999/xlink" x="0px" y="0px"
	 viewBox="0 0 300 280" style="enable-background:new 0 0 300 280;" xml:space="preserve">
<style type="text/css">
	.st0{fill:#006699;}
	.st1{fill:#FFFFFF;}
</style>
<g>
	<path class="st0" d="M13.3,22.9c0-10.8,9.1-19.6,20.2-19.6h233c11.2,0,20.2,8.8,20.2,19.6v234.3c0,10.8-9,19.6-20.2,19.6h-233
		c-11.2,0-20.2-8.8-20.2-19.6V22.9L13.3,22.9z"/>
	<path class="st1" d="M96.4,232.1V109H55.5v123.1H96.4L96.4,232.1z M75.9,92.2c14.3,0,23.1-9.5,23.1-21.3
		c-0.3-12.1-8.9-21.3-22.9-21.3c-14,0-23.2,9.2-23.2,21.3c0,11.8,8.9,21.3,22.6,21.3L75.9,92.2L75.9,92.2z M119,232.1h40.9v-68.7
		c0-3.7,0.3-7.4,1.3-10c3-7.4,9.7-15,21-15c14.8,0,20.7,11.3,20.7,27.8v65.9h40.9v-70.6c0-37.8-20.2-55.4-47.1-55.4
		c-22.1,0-31.8,12.3-37.2,20.7h0.3V109H119C119.6,120.6,119,232.1,119,232.1L119,232.1z"/>
</g>
</svg>
