<?xml version="1.0" encoding="utf-8"?>
<!-- Generator: Adobe Illustrator 25.1.0, SVG Export Plug-In . SVG Version: 6.00 Build 0)  -->
<svg version="1.0" id="Layer_1" xmlns="http://www.w3.org/2000/svg" xmlns:xlink="http://www.w3.org/1999/xlink" x="0px" y="0px"
	 viewBox="0 0 280 300" enable-background="new 0 0 280 300" xml:space="preserve">
<g>
</g>
<g>
	<path d="M194.21,257.58H85.79c-29.35,0-53.37-24.02-53.37-53.37V95.79c0-29.35,24.02-53.37,53.37-53.37h108.42
		c29.35,0,53.37,24.02,53.37,53.37v108.42C247.58,233.56,223.56,257.58,194.21,257.58z"/>
	<g>
		<path fill="#DF2F54" d="M179.14,88.63c-8.81-9.7-8.32-22.3-8.32-22.3h-6.86C165.08,72.65,168.55,82.61,179.14,88.63z"/>
		<path fill="#DF2F54" d="M119.73,135.5c-10.99,0-19.89,8.91-19.89,19.89c0,8.01,4.74,14.91,11.56,18.06
			c-2.61-3.37-4.17-7.59-4.17-12.18c0-10.99,8.91-19.89,19.89-19.89c2.13,0,4.19,0.34,6.11,0.96v-24.88c-2-0.28-4.04-0.42-6.11-0.42
			c-0.42,0-0.85,0.01-1.27,0.02v19.4C123.92,135.84,121.87,135.5,119.73,135.5z"/>
		<path fill="#DF2F54" d="M197.19,98.46v19.56c0,0-14.77,2.11-33.45-10.55c0,7.53,0,15.07,0,22.6c0,15.32,2,31.24-5.1,45.41
			c-7.43,14.85-22.24,24.29-38.9,24.29c-8.73,0-16.86-2.52-23.72-6.88c8,7.89,18.98,12.76,31.1,12.76c16.66,0,31.47-9.44,38.9-24.29
			c7.09-14.17,5.1-30.09,5.1-45.41c0-7.53,0-15.07,0-22.6c18.69,12.66,33.45,10.55,33.45,10.55V99.48
			C201.91,99.3,199.45,98.95,197.19,98.46z"/>
		<path fill="#2CB0BA" d="M197.19,98.46v-4.86c-7.6-0.52-13.49-2.39-18.05-4.98C183.04,92.92,188.78,96.65,197.19,98.46z"/>
		<path fill="#21AFB9" d="M82.81,161.34c0-24.04,19.15-43.61,43.03-44.28v-5.47c-2-0.28-4.04-0.42-6.11-0.42
			c-24.47,0-44.3,19.84-44.3,44.3c0,15.74,8.21,29.57,20.59,37.42C87.86,184.86,82.81,173.69,82.81,161.34z"/>
		<path fill="#21AFB9" d="M127.12,181.16c10.82,0,18.91-8.43,19.69-18.86c1.01-13.45,0.5-26.95,0.5-40.42c0-1.25,0-55.55,0-55.55
			h16.65c-0.62-3.49-0.53-5.88-0.53-5.88h-23.51c0,0,0,54.29,0,55.55c0,13.47,0.51,26.97-0.5,40.42
			c-0.78,10.43-8.87,18.86-19.69,18.86c-2.98,0-5.8-0.66-8.33-1.83C115.04,178.14,120.72,181.16,127.12,181.16z"/>
		<path fill="#FFFFFF" d="M158.64,175.48c7.09-14.17,5.1-30.09,5.1-45.41c0-7.53,0-15.07,0-22.6
			c18.69,12.66,33.45,10.55,33.45,10.55V98.46c-8.41-1.81-14.15-5.54-18.05-9.84c-10.59-6.02-14.05-15.97-15.18-22.3h-16.65
			c0,0,0,54.29,0,55.55c0,13.47,0.51,26.97-0.5,40.42c-0.78,10.43-8.87,18.86-19.69,18.86c-6.39,0-12.08-3.02-15.72-7.71
			c-6.82-3.15-11.56-10.05-11.56-18.06c0-10.99,8.91-19.89,19.89-19.89c2.13,0,4.19,0.34,6.11,0.96v-19.4
			c-23.88,0.67-43.03,20.24-43.03,44.28c0,12.35,5.05,23.51,13.2,31.55c6.86,4.36,14.99,6.88,23.72,6.88
			C136.4,199.77,151.2,190.33,158.64,175.48z"/>
	</g>
	<g>
		<polygon fill="#FFFFFF" points="75.28,211.6 75.28,217.93 82.21,217.93 82.21,240.08 89.44,240.08 89.44,218.08 95.02,218.08 
			97.43,211.6 		"/>
		<polygon fill="#FFFFFF" points="132.54,211.6 132.54,217.93 139.47,217.93 139.47,240.08 146.71,240.08 146.71,218.08 
			152.28,218.08 154.69,211.6 		"/>
		<rect x="98.03" y="221.09" fill="#FFFFFF" width="7.23" height="18.99"/>
		<circle fill="#FFFFFF" cx="101.65" cy="215.22" r="3.62"/>
		<path fill="#FFFFFF" d="M107.53,211.6v28.48c0,0,7.01-0.23,7.23,0c0.23,0.23,0-6.93,0-6.93l2.41-1.96l6.03,8.9h7.69l-9.64-13.57
			l8.74-7.69h-8.59l-6.33,6.18V211.6H107.53z"/>
		<path fill="#FFFFFF" d="M181.37,211.6v28.48c0,0,7.01-0.23,7.23,0s0-6.93,0-6.93l2.41-1.96l6.03,8.9h7.69l-9.64-13.57l8.74-7.69
			h-8.59l-6.33,6.18V211.6H181.37z"/>
		<g>
			<path fill="#36B2BD" d="M153.49,228.55c0-6.42,4.99-11.67,11.3-12.1c-0.27-0.02-0.55-0.03-0.83-0.03
				c-6.7,0-12.13,5.43-12.13,12.13c0,6.7,5.43,12.13,12.13,12.13c0.28,0,0.55-0.01,0.83-0.03
				C158.48,240.23,153.49,234.97,153.49,228.55z"/>
			<path fill="#DF3154" d="M166.82,216.42c-0.2,0-0.4,0.01-0.6,0.02c6.42,0.31,11.53,5.62,11.53,12.12s-5.11,11.8-11.53,12.12
				c0.2,0.01,0.4,0.02,0.6,0.02c6.7,0,12.13-5.43,12.13-12.13C178.95,221.85,173.52,216.42,166.82,216.42z"/>
			<path fill="#FFFFFF" d="M166.22,216.44c-0.2-0.01-0.4-0.02-0.6-0.02c-0.28,0-0.55,0.01-0.83,0.03c-6.31,0.43-11.3,5.68-11.3,12.1
				s4.99,11.67,11.3,12.1c0.27,0.02,0.55,0.03,0.83,0.03c0.2,0,0.4-0.01,0.6-0.02c6.42-0.31,11.53-5.62,11.53-12.12
				S172.64,216.75,166.22,216.44z M160.28,228.55c0-2.67,1.96-4.87,4.51-5.27c0.27-0.04,0.55-0.07,0.83-0.07
				c0.2,0,0.4,0.01,0.6,0.04c2.66,0.3,4.74,2.56,4.74,5.3c0,2.74-2.07,5-4.74,5.3c-0.2,0.02-0.4,0.04-0.6,0.04
				c-0.28,0-0.56-0.03-0.83-0.07C162.23,233.42,160.28,231.22,160.28,228.55z"/>
		</g>
	</g>
</g>
</svg>
